<svg xmlns="http://www.w3.org/2000/svg" width="162.875" height="100" viewBox="0 0 162.875 100">
  <g id="Group_414" data-name="Group 414" transform="translate(104 113)">
    <g id="Group_413" data-name="Group 413" transform="translate(-104 -113)">
      <rect id="Rectangle_1192" data-name="Rectangle 1192" width="162.875" height="100" transform="translate(0)" fill="#002839"/>
      <g id="Group_408" data-name="Group 408" transform="translate(10.408 54.748)">
        <path id="Path_1475" data-name="Path 1475" d="M142.664,716.071l-.242.656a4.669,4.669,0,0,0-2.077-.494c-1.048,0-1.673.423-1.673,1.17,0,.887.907,1.109,1.845,1.361,1.3.332,2.43.706,2.43,2.037s-1.069,1.987-2.622,1.987a6.088,6.088,0,0,1-2.621-.615l.221-.656a5.811,5.811,0,0,0,2.38.575c1.24,0,1.754-.483,1.754-1.19,0-.867-.857-1.088-1.845-1.362-1.19-.3-2.44-.655-2.44-2.057,0-1.3,1.059-1.935,2.521-1.935A5.982,5.982,0,0,1,142.664,716.071Z" transform="translate(-137.703 -715.547)" fill="#ac9874"/>
        <path id="Path_1476" data-name="Path 1476" d="M249.288,716.729a2.2,2.2,0,0,1,2.278,2.239,2.173,2.173,0,0,1-2.268,2.238h-2.44v2.582H246v-7.059Zm-2.43.685v3.107h2.208a1.488,1.488,0,0,0,1.6-1.543,1.514,1.514,0,0,0-1.6-1.563Z" transform="translate(-237.715 -716.639)" fill="#ac9874"/>
        <path id="Path_1477" data-name="Path 1477" d="M357.669,723.788h-.857v-7.059h.857Z" transform="translate(-340.046 -716.639)" fill="#ac9874"/>
        <path id="Path_1478" data-name="Path 1478" d="M420.394,723.788h-.9l-3.851-5.748v5.748h-.857v-7.059h.9l3.851,5.687v-5.687h.857Z" transform="translate(-393.587 -716.639)" fill="#ac9874"/>
        <path id="Path_1479" data-name="Path 1479" d="M540.423,723.788h-.9l-3.852-5.748v5.748h-.857v-7.059h.9l3.851,5.687v-5.687h.857Z" transform="translate(-504.433 -716.639)" fill="#ac9874"/>
        <path id="Path_1480" data-name="Path 1480" d="M659.794,717.414H655.71V720h3.519v.685H655.71v2.42h4.225v.686h-5.082v-7.059h4.941Z" transform="translate(-615.285 -716.639)" fill="#ac9874"/>
        <path id="Path_1481" data-name="Path 1481" d="M765.253,716.729a2.056,2.056,0,0,1,.595,4.044l1.442,3.015h-.907l-1.361-2.965h-2.329v2.965h-.857v-7.059Zm-2.561.685v2.723h2.4a1.362,1.362,0,1,0,0-2.723Z" transform="translate(-714.081 -716.639)" fill="#ac9874"/>
        <path id="Path_1482" data-name="Path 1482" d="M872.722,716.071l-.242.656a4.667,4.667,0,0,0-2.077-.494c-1.049,0-1.674.423-1.674,1.17,0,.887.907,1.109,1.846,1.361,1.3.332,2.429.706,2.429,2.037s-1.068,1.987-2.622,1.987a6.1,6.1,0,0,1-2.622-.615l.223-.656a5.8,5.8,0,0,0,2.379.575c1.241,0,1.755-.483,1.755-1.19,0-.867-.858-1.088-1.846-1.362-1.19-.3-2.44-.655-2.44-2.057,0-1.3,1.059-1.935,2.521-1.935A5.978,5.978,0,0,1,872.722,716.071Z" transform="translate(-811.902 -715.547)" fill="#ac9874"/>
        <path id="Path_1483" data-name="Path 1483" d="M1030.014,717.019c0,.917-.686,1.412-1.421,1.855l1.794,2.058a8.084,8.084,0,0,0,.766-1.322l.576.293a7.13,7.13,0,0,1-.908,1.534l1.11,1.26h-.888l-.675-.767a3,3,0,0,1-2.087.857,1.917,1.917,0,0,1-2.147-1.886,2.18,2.18,0,0,0,.635-3.8,1.526,1.526,0,0,1,1.643-1.552A1.476,1.476,0,0,1,1030.014,717.019Zm-.071,4.417-1.925-2.208a2,2,0,0,0-1.169,1.6,1.344,1.344,0,0,0,1.5,1.291A2.313,2.313,0,0,0,1029.943,721.436Zm-1.754-3.016c.635-.4,1.139-.766,1.139-1.381a.852.852,0,0,0-.907-.867.93.93,0,0,0-.968.958C1027.453,717.533,1027.666,717.825,1028.189,718.42Z" transform="translate(-958.157 -715.547)" fill="#ac9874"/>
        <path id="Path_1484" data-name="Path 1484" d="M1195.241,716.071l-.242.656a4.677,4.677,0,0,0-2.078-.494c-1.048,0-1.673.423-1.673,1.17,0,.887.907,1.109,1.845,1.361,1.3.332,2.43.706,2.43,2.037s-1.069,1.987-2.621,1.987a6.1,6.1,0,0,1-2.622-.615l.222-.656a5.812,5.812,0,0,0,2.38.575c1.24,0,1.754-.483,1.754-1.19,0-.867-.857-1.088-1.845-1.362-1.19-.3-2.44-.655-2.44-2.057,0-1.3,1.06-1.935,2.521-1.935A5.98,5.98,0,0,1,1195.241,716.071Z" transform="translate(-1109.745 -715.547)" fill="#ac9874"/>
        <path id="Path_1485" data-name="Path 1485" d="M1301.881,716.729a2.2,2.2,0,0,1,2.279,2.239,2.174,2.174,0,0,1-2.269,2.238h-2.441v2.582h-.857v-7.059Zm-2.431.685v3.107h2.208a1.488,1.488,0,0,0,1.6-1.543,1.514,1.514,0,0,0-1.6-1.563Z" transform="translate(-1209.771 -716.639)" fill="#ac9874"/>
        <path id="Path_1486" data-name="Path 1486" d="M1410.262,723.788h-.857v-7.059h.857Z" transform="translate(-1312.104 -716.639)" fill="#ac9874"/>
        <path id="Path_1487" data-name="Path 1487" d="M1472.98,723.788h-.9l-3.852-5.748v5.748h-.857v-7.059h.9l3.851,5.687v-5.687h.857Z" transform="translate(-1365.637 -716.639)" fill="#ac9874"/>
        <path id="Path_1488" data-name="Path 1488" d="M1593.011,723.788h-.9l-3.851-5.748v5.748h-.857v-7.059h.9l3.851,5.687v-5.687h.857Z" transform="translate(-1476.484 -716.639)" fill="#ac9874"/>
        <path id="Path_1489" data-name="Path 1489" d="M1712.372,717.414h-4.083V720h3.519v.685h-3.519v2.42h4.224v.686h-5.082v-7.059h4.941Z" transform="translate(-1587.327 -716.639)" fill="#ac9874"/>
        <path id="Path_1490" data-name="Path 1490" d="M1817.839,716.729a2.056,2.056,0,0,1,.595,4.044l1.442,3.015h-.907l-1.361-2.965h-2.329v2.965h-.857v-7.059Zm-2.561.685v2.723h2.4a1.362,1.362,0,1,0,0-2.723Z" transform="translate(-1686.131 -716.639)" fill="#ac9874"/>
        <path id="Path_1491" data-name="Path 1491" d="M1925.315,716.071l-.243.656a4.658,4.658,0,0,0-2.076-.494c-1.049,0-1.674.423-1.674,1.17,0,.887.908,1.109,1.845,1.361,1.3.332,2.43.706,2.43,2.037s-1.069,1.987-2.622,1.987a6.093,6.093,0,0,1-2.622-.615l.222-.656a5.8,5.8,0,0,0,2.379.575c1.24,0,1.754-.483,1.754-1.19,0-.867-.858-1.088-1.845-1.362-1.189-.3-2.44-.655-2.44-2.057,0-1.3,1.059-1.935,2.521-1.935A5.98,5.98,0,0,1,1925.315,716.071Z" transform="translate(-1783.958 -715.547)" fill="#ac9874"/>
      </g>
      <g id="Group_409" data-name="Group 409" transform="translate(37.156 85.197)">
        <path id="Path_1492" data-name="Path 1492" d="M491.118,1117.951h-.5l-.4-1.025h-2.033l-.4,1.025h-.485l1.607-4h.615Zm-2.785-1.412h1.726l-.86-2.176h-.005Z" transform="translate(-487.289 -1113.911)" fill="#ac9874"/>
        <path id="Path_1493" data-name="Path 1493" d="M574.9,1114.557h-2.273v1.509h1.948v.388h-1.948v1.7h-.484v-3.988H574.9Z" transform="translate(-565.649 -1114.119)" fill="#ac9874"/>
        <path id="Path_1494" data-name="Path 1494" d="M646.34,1114.17a1.162,1.162,0,0,1,.336,2.285l.815,1.7h-.513l-.769-1.675h-1.316v1.675h-.485v-3.988Zm-1.447.387v1.538h1.356a.769.769,0,1,0,0-1.538Z" transform="translate(-632.386 -1114.119)" fill="#ac9874"/>
        <path id="Path_1495" data-name="Path 1495" d="M723.195,1118.158h-.485v-3.988h.485Z" transform="translate(-704.697 -1114.119)" fill="#ac9874"/>
        <path id="Path_1496" data-name="Path 1496" d="M770.213,1113.719l-.125.359a2.566,2.566,0,0,0-.94-.194,1.659,1.659,0,1,0-.017,3.315,2.874,2.874,0,0,0,1-.194l.1.364a3.322,3.322,0,0,1-1.184.217,2.047,2.047,0,1,1,.012-4.09A3.009,3.009,0,0,1,770.213,1113.719Z" transform="translate(-745.526 -1113.496)" fill="#ac9874"/>
        <path id="Path_1497" data-name="Path 1497" d="M845.026,1117.951h-.5l-.4-1.025h-2.034l-.4,1.025H841.2l1.607-4h.615Zm-2.785-1.412h1.726l-.86-2.176H843.1Z" transform="translate(-814.119 -1113.911)" fill="#ac9874"/>
        <path id="Path_1498" data-name="Path 1498" d="M929.214,1118.158h-.507l-2.176-3.246v3.246h-.484v-3.988h.507l2.176,3.214v-3.214h.484Z" transform="translate(-892.476 -1114.119)" fill="#ac9874"/>
        <path id="Path_1499" data-name="Path 1499" d="M1103.033,1118.158h-.484v-1.788h-2.273v1.788h-.484v-3.988h.484v1.812h2.273v-1.812h.484Z" transform="translate(-1052.927 -1114.119)" fill="#ac9874"/>
        <path id="Path_1500" data-name="Path 1500" d="M1186.322,1114.557h-2.307v1.459H1186v.387h-1.988v1.367h2.386v.387h-2.871v-3.988h2.792Z" transform="translate(-1130.259 -1114.119)" fill="#ac9874"/>
        <path id="Path_1501" data-name="Path 1501" d="M1260.784,1114.17a1.162,1.162,0,0,1,.337,2.285l.814,1.7h-.513l-.769-1.675h-1.316v1.675h-.484v-3.988Zm-1.447.387v1.538h1.356a.769.769,0,1,0,0-1.538Z" transform="translate(-1199.818 -1114.119)" fill="#ac9874"/>
        <path id="Path_1502" data-name="Path 1502" d="M1337.639,1118.158h-.484v-3.988h.484Z" transform="translate(-1272.129 -1114.119)" fill="#ac9874"/>
        <path id="Path_1503" data-name="Path 1503" d="M1381.846,1114.557h-1.378v3.6h-.485v-3.6h-1.372v-.387h3.235Z" transform="translate(-1310.413 -1114.119)" fill="#ac9874"/>
        <path id="Path_1504" data-name="Path 1504" d="M1447.632,1117.951h-.5l-.405-1.025h-2.032l-.4,1.025h-.485l1.606-4h.615Zm-2.785-1.412h1.726l-.859-2.176h-.006Z" transform="translate(-1370.618 -1113.911)" fill="#ac9874"/>
        <path id="Path_1505" data-name="Path 1505" d="M1526.695,1113.787l-.131.359a2.43,2.43,0,0,0-1.082-.263,1.658,1.658,0,0,0-.068,3.315,1.614,1.614,0,0,0,1.11-.4v-.888h-1.065v-.364h1.464v1.447a2.129,2.129,0,0,1-1.538.592,2.046,2.046,0,1,1,.029-4.09A2.853,2.853,0,0,1,1526.695,1113.787Z" transform="translate(-1444.026 -1113.496)" fill="#ac9874"/>
        <path id="Path_1506" data-name="Path 1506" d="M1612.053,1114.557h-2.307v1.459h1.988v.387h-1.988v1.367h2.387v.387h-2.871v-3.988h2.791Z" transform="translate(-1523.417 -1114.119)" fill="#ac9874"/>
      </g>
      <g id="Group_411" data-name="Group 411" transform="translate(62.051 67.334)">
        <g id="Group_410" data-name="Group 410" transform="translate(3.605 2.946)">
          <path id="Path_1507" data-name="Path 1507" d="M863.225,919.851h-2.848v1.8h2.454v.478h-2.454v1.688h2.947v.478h-3.544v-4.923h3.446Z" transform="translate(-859.779 -919.309)" fill="#ac9874"/>
          <path id="Path_1508" data-name="Path 1508" d="M922.2,935.518l-.1.373a3.259,3.259,0,0,0-1.1-.2c-.6,0-.886.224-.886.569,0,.464.429.513,1.012.669.641.176,1.238.359,1.238,1.076s-.6,1.034-1.406,1.034a3.732,3.732,0,0,1-1.428-.3l.119-.38a3.285,3.285,0,0,0,1.245.274c.626,0,.9-.239.9-.584,0-.457-.45-.513-1.034-.667s-1.21-.331-1.21-1.07c0-.7.556-1.026,1.365-1.026A3.617,3.617,0,0,1,922.2,935.518Z" transform="translate(-914.957 -933.998)" fill="#ac9874"/>
          <path id="Path_1509" data-name="Path 1509" d="M968.322,923.182h1.034v.4h-1.034V925.8c0,.507.147.675.549.675a1.9,1.9,0,0,0,.485-.078l.021.387a1.9,1.9,0,0,1-.661.106c-.654,0-.95-.281-.95-1.076v-2.229h-.534v-.4h.534l.085-1.055h.471Z" transform="translate(-959.01 -921.853)" fill="#ac9874"/>
          <path id="Path_1510" data-name="Path 1510" d="M1010.254,976.584a.292.292,0,0,1-.323.31.288.288,0,0,1-.324-.31.323.323,0,0,1,.647,0Z" transform="translate(-998.143 -971.851)" fill="#ac9874"/>
          <path id="Path_1511" data-name="Path 1511" d="M1065.221,924.2h-.57v-4.36l-.893.443-.2-.408,1.21-.606h.45Z" transform="translate(-1047.968 -919.217)" fill="#ac9874"/>
          <path id="Path_1512" data-name="Path 1512" d="M1108.737,919.6a3.515,3.515,0,0,1,.24,1.365,3.038,3.038,0,0,1-.528,1.884,1.937,1.937,0,0,1-1.61.746,3.255,3.255,0,0,1-1.491-.351l.2-.408a3.011,3.011,0,0,0,1.224.289,1.457,1.457,0,0,0,1.272-.613,2.559,2.559,0,0,0,.338-1.384v-.218a1.64,1.64,0,0,1-1.547.788,1.472,1.472,0,0,1-1.632-1.54,1.616,1.616,0,0,1,1.808-1.61A1.718,1.718,0,0,1,1108.737,919.6Zm-2.939.541a1.084,1.084,0,0,0,1.216,1.118,1.172,1.172,0,0,0,1.245-1.146,1.124,1.124,0,0,0-1.238-1.111A1.1,1.1,0,0,0,1105.8,920.138Z" transform="translate(-1086.422 -918.542)" fill="#ac9874"/>
          <path id="Path_1513" data-name="Path 1513" d="M1169.781,919.837l-1.963,4.459h-.661l2-4.423h-2.652v-.5h3.271Z" transform="translate(-1143.042 -919.309)" fill="#ac9874"/>
          <path id="Path_1514" data-name="Path 1514" d="M1225.937,919.6a3.511,3.511,0,0,1,.24,1.365,3.038,3.038,0,0,1-.528,1.884,1.937,1.937,0,0,1-1.61.746,3.255,3.255,0,0,1-1.491-.351l.2-.408a3,3,0,0,0,1.223.289,1.455,1.455,0,0,0,1.272-.613,2.555,2.555,0,0,0,.338-1.384v-.218a1.64,1.64,0,0,1-1.547.788,1.471,1.471,0,0,1-1.631-1.54,1.615,1.615,0,0,1,1.807-1.61A1.719,1.719,0,0,1,1225.937,919.6Zm-2.94.541a1.085,1.085,0,0,0,1.216,1.118,1.172,1.172,0,0,0,1.246-1.146,1.124,1.124,0,0,0-1.238-1.111A1.1,1.1,0,0,0,1223,920.138Z" transform="translate(-1194.654 -918.542)" fill="#ac9874"/>
        </g>
        <rect id="Rectangle_1193" data-name="Rectangle 1193" width="37.637" height="0.31" fill="#ac9874"/>
        <rect id="Rectangle_1194" data-name="Rectangle 1194" width="37.637" height="0.31" transform="translate(0 10.631)" fill="#ac9874"/>
      </g>
      <g id="Group_412" data-name="Group 412" transform="translate(50.417 12.592)">
        <path id="Path_1515" data-name="Path 1515" d="M721.544,184.364a8.727,8.727,0,0,0-2.583-2.993,42.061,42.061,0,0,0-5.685-3.328q-5.217-2.648-6.482-3.976a4.164,4.164,0,0,1-1.267-2.929,4.736,4.736,0,0,1,1.813-3.666,6.823,6.823,0,0,1,4.643-1.575,7.016,7.016,0,0,1,4.631,1.575,8.88,8.88,0,0,1,2.694,5.02l.223.05a.974.974,0,0,0,.373-.1,16.043,16.043,0,0,0,.124-1.8l.1-2.191q0-.245-.2-1.87a10.481,10.481,0,0,0-2.756-1.451,14.954,14.954,0,0,0-4.371-.565,10.782,10.782,0,0,0-7.326,2.374,7.4,7.4,0,0,0-2.732,5.795,6.89,6.89,0,0,0,.77,3.322,10.807,10.807,0,0,0,1.822,2.338,19.13,19.13,0,0,1-.58,2.975,24.036,24.036,0,0,1-1.194,2.886,21.18,21.18,0,0,1-3.117,4.286l-4.246-5.233q-.322-.417-.969-1.13-1.91-2.138-2.78-3.341a9.519,9.519,0,0,0,3.775-2.638,5.874,5.874,0,0,0,1.142-3.7,5.13,5.13,0,0,0-1.7-3.92,6.8,6.8,0,0,0-4.8-1.579,7.471,7.471,0,0,0-5.166,1.629,4.968,4.968,0,0,0-1.813,3.8,6.306,6.306,0,0,0,.659,2.664,26.433,26.433,0,0,0,2.992,4.358,10.63,10.63,0,0,0-2.755.885q-2.036,1.009-2.558,1.352a14.036,14.036,0,0,0-2.409,2c-.03.033-.057.071-.087.1a8.963,8.963,0,0,0-2.258-2.427,42.029,42.029,0,0,0-5.687-3.328q-5.213-2.648-6.481-3.976a4.162,4.162,0,0,1-1.266-2.929,4.738,4.738,0,0,1,1.812-3.666,6.83,6.83,0,0,1,4.644-1.575,7.021,7.021,0,0,1,4.631,1.575,8.9,8.9,0,0,1,2.7,5.02l.223.05a.974.974,0,0,0,.373-.1,16.254,16.254,0,0,0,.124-1.8l.1-2.191q0-.245-.2-1.87a10.475,10.475,0,0,0-2.757-1.451,14.944,14.944,0,0,0-4.37-.565,10.778,10.778,0,0,0-7.326,2.374,7.4,7.4,0,0,0-2.732,5.795,6.891,6.891,0,0,0,.77,3.322,12.175,12.175,0,0,0,3.129,3.495,42.27,42.27,0,0,0,5.563,3.211,20.038,20.038,0,0,1,5.687,3.851,5.465,5.465,0,0,1,1.416,3.641,5.769,5.769,0,0,1-.932,2.99,6.094,6.094,0,0,1-2.583,2.35,8.212,8.212,0,0,1-9.349-1.575,8.318,8.318,0,0,1-2.831-5.413,1.185,1.185,0,0,0-.186-.6.452.452,0,0,0-.36-.16.393.393,0,0,0-.373.173,4.214,4.214,0,0,0-.173,1.353,46.88,46.88,0,0,1-.372,4.774,6.055,6.055,0,0,0-.05.69,1.171,1.171,0,0,0,.4.835,7.3,7.3,0,0,0,2.211,1.034,19.658,19.658,0,0,0,6.432,1.058,13.881,13.881,0,0,0,6.182-1.17,8.816,8.816,0,0,0,3.359-2.933,7.97,7.97,0,0,0,2.673,2.678,9.9,9.9,0,0,0,5.327,1.326,13.927,13.927,0,0,0,4.632-.712,14.388,14.388,0,0,0,3.736-1.968,31.258,31.258,0,0,0,3-2.7c.232.2.674.676,1.419,1.4a29.6,29.6,0,0,0,2.509,2.239,11.251,11.251,0,0,0,2.5,1.342,13.8,13.8,0,0,0,5.94,1.148,14.5,14.5,0,0,0,6.4-1.814,8.883,8.883,0,0,0,3.712-3.485,9.5,9.5,0,0,0,1.379-4.951A8.212,8.212,0,0,0,721.544,184.364Zm-34.308-13.2a2.872,2.872,0,0,1,.943-2.154,3.423,3.423,0,0,1,2.459-.9,3.543,3.543,0,0,1,2.781,1.242,5.265,5.265,0,0,1,1.093,3.58,5.961,5.961,0,0,1-.795,2.978,4.492,4.492,0,0,1-2.184,1.994,20.094,20.094,0,0,1-3.3-3.889A5.379,5.379,0,0,1,687.236,171.162Zm7.462,22.579a10.073,10.073,0,0,1-4.408.946,10.269,10.269,0,0,1-3.75-.639,7.229,7.229,0,0,1-2.707-1.781,6.58,6.58,0,0,1-1.477-2.347,6.321,6.321,0,0,1-.41-1.867,7.419,7.419,0,0,1,1.6-4.521,10.07,10.07,0,0,1,4.705-3.292q2.758,3,3.776,4.25l5.537,6.536.074.1.2.27A9.166,9.166,0,0,1,694.7,193.741Zm23.68-.494a6.1,6.1,0,0,1-2.583,2.35,8.074,8.074,0,0,1-3.613.812c-1.2,0-5.312-.766-9.727-5.443q-.588-.667-1.264-1.463,1.79-2.432,4.284-5.319a40.312,40.312,0,0,1,3.157-3.351q1.4.812,3.576,1.932a20.03,20.03,0,0,1,5.686,3.851,5.463,5.463,0,0,1,1.415,3.641A5.773,5.773,0,0,1,718.378,193.248Z" transform="translate(-660.605 -164.568)" fill="#ac9874"/>
      </g>
    </g>
  </g>
</svg>
